<?xml version="1.0" encoding="utf-8"?>
<!-- Generator: Adobe Illustrator 20.1.0, SVG Export Plug-In . SVG Version: 6.00 Build 0)  -->
<svg version="1.1" id="Layer_1" xmlns="http://www.w3.org/2000/svg" xmlns:xlink="http://www.w3.org/1999/xlink" x="0px" y="0px"
	 viewBox="0 0 494 381" style="enable-background:new 0 0 494 381;" xml:space="preserve">
<style type="text/css">
	.st0{fill:#990000;}
	.st1{fill:#FFFFFF;}
</style>
<polygon class="st0" points="493.5,305.5 493.5,381 384,382 0,84.5 -0.5,0.5 100.5,0.5 "/>
<g id="k1CGjQ.tif_1_">
	<g>
		<g>
			<path class="st1" d="M246.7,163.7C246.8,163.8,246.7,163.7,246.7,163.7c-0.3-0.6-0.6-1.1-0.8-1.6c-9.3-21.6-25.7-34-49-36.7
				c-9.8-1.2-19.8-0.9-29.5-2c-30-3.5-54.2-17.1-71.5-42.2c-0.3-0.5-0.8-0.9-1.8-2c4.2,19.3,11.9,35.8,24.8,49.7
				c15.1,16.3,34.1,25.3,55.8,29.4c19.8,3.7,36.6,12.5,48.8,29c8.4,11.4,14,24.3,18.1,37.8c2,6.6,3.7,13.3,5.5,19.9
				c2.8-9.3,5.3-18.5,8.4-27.6c4.3-12.7,10.4-24.6,19.3-34.8c12-13.8,27.5-21,45.2-24.3c23.6-4.5,43.9-14.8,59.3-33.7
				c10.7-13.1,17.5-28.1,20.8-44.8c-0.4,0.2-0.7,0.2-0.8,0.3c-0.2,0.2-0.4,0.5-0.6,0.8c-15.4,22.6-36.7,36.3-63.5,41.1
				c-10.7,1.9-21.7,1.9-32.6,2.8c-17.2,1.4-32.6,6.8-43.8,20.6C254.2,150.9,250.7,157.4,246.7,163.7z M310.7,233.2
				c2.5-0.3,5.1-0.5,7.6-1c14.7-2.7,26.8-15.3,29.3-30.2c2.6-15.4-4.8-31.2-18.1-38.5c-1.2-0.7-2.9-1.1-4.2-0.9
				c-16.3,2.8-31.7,8-43.4,20.3c-4.8,5-10,9.6-8.3,18.5C276.8,219.3,292.4,233.2,310.7,233.2z M148.6,192.7
				c0,22,13.9,37.7,33.1,40.1c18.3,2.3,35.8-9.7,40.4-27.9c0.7-2.9,1.5-6.8,0.2-9c-3.2-5.3-7.3-10.2-11.7-14.6
				c-11-10.9-25-15.7-39.9-18.2c-1.2-0.2-2.8,0-3.9,0.7C155.1,171,149.1,181.6,148.6,192.7z"/>
			<path class="st1" d="M404.2,95.4c-0.9,6.3-1.7,12.6-2.6,19c-3.8,28.2-19.6,48.3-43,63.3c-0.6,0.4-1.2,0.8-1.7,1.1
				c-0.1,0.1-0.1,0.2-0.3,0.5c5.2,13.4,5.4,27-0.8,40.4c-4.8,10.2-12.3,18-22.3,23.2c-18.7,9.7-46.2,7.6-64.3-16.3
				c-7.4,25.2-14.6,49.6-22,74.7c-7.1-24.5-13.9-48.2-21-72.8c-10.3,12.3-22.4,19-37.5,19.8c-11.3,0.6-21.6-2.4-31-8.8
				c-16.8-11.5-27.1-34.7-17.9-59.5c-1.2-0.7-2.4-1.5-3.7-2.3c-24.9-15.5-40.6-37.1-43.9-66.8c-0.8-7.4-1.6-14.8-1.9-22.4
				c11.3,36.1,34.2,60.5,70.7,71.9c-17.5,15.3-23.2,33.6-12.7,54.8c7.8,15.7,21.6,23.5,39,22.8c21-0.8,34.2-12.7,40.8-32.8
				c5.4,10.6,9,21.5,11.6,32.7c2.6,11.2,4.9,22.4,7.6,33.7c5.3-23.5,8.8-47.6,20.7-69.5c6.4,23.5,21,36.9,45.6,35.8
				c18.3-0.8,31.4-10.9,37.4-28.3c6.9-19.9,0.5-36.4-15.9-49.7c3.9-1.5,7.7-2.8,11.4-4.5c28.8-12.8,47.1-34.8,56.4-64.6
				c0.4-1.2,0.9-2.3,1.4-3.5C404.2,90.3,404.2,92.9,404.2,95.4z"/>
			<path class="st1" d="M246.7,163.7c4-6.3,7.4-12.8,12-18.4c11.2-13.8,26.6-19.2,43.8-20.6c10.9-0.9,21.9-0.8,32.6-2.8
				c26.7-4.8,48.1-18.4,63.5-41.1c0.2-0.3,0.4-0.6,0.6-0.8c0.1-0.1,0.4-0.2,0.8-0.3c-3.4,16.7-10.1,31.7-20.8,44.8
				c-15.4,18.9-35.7,29.2-59.3,33.7c-17.6,3.3-33.2,10.5-45.2,24.3c-8.9,10.2-15,22.1-19.3,34.8c-3.1,9.1-5.6,18.3-8.4,27.6
				c-1.8-6.7-3.5-13.3-5.5-19.9c-4.1-13.5-9.7-26.4-18.1-37.8c-12.2-16.5-29-25.3-48.8-29c-21.6-4-40.6-13-55.8-29.4
				C105.9,114.9,98.2,98.4,94,79.1c1,1.1,1.4,1.5,1.8,2c17.4,25,41.6,38.6,71.5,42.2c9.8,1.2,19.8,0.9,29.5,2
				c23.3,2.7,39.7,15.1,49,36.7C246.1,162.6,246.4,163.1,246.7,163.7C246.7,163.7,246.8,163.8,246.7,163.7z"/>
			<path class="st1" d="M310.7,233.2c-18.3,0-33.8-13.9-37.2-31.7c-1.7-8.9,3.5-13.5,8.3-18.5c11.7-12.4,27.1-17.5,43.4-20.3
				c1.3-0.2,3,0.2,4.2,0.9c13.3,7.3,20.7,23.1,18.1,38.5c-2.5,14.9-14.6,27.4-29.3,30.2C315.8,232.7,313.2,232.9,310.7,233.2z"/>
			<path class="st1" d="M148.6,192.7c0.5-11.1,6.5-21.7,18.2-29c1-0.6,2.6-0.9,3.9-0.7c14.9,2.5,28.9,7.4,39.9,18.2
				c4.4,4.4,8.5,9.3,11.7,14.6c1.3,2.2,0.5,6.1-0.2,9c-4.6,18.2-22.1,30.2-40.4,27.9C162.5,230.4,148.6,214.7,148.6,192.7z"/>
		</g>
	</g>
</g>
</svg>
