<?xml version="1.0" encoding="utf-8"?>
<!-- Generator: Adobe Illustrator 20.1.0, SVG Export Plug-In . SVG Version: 6.00 Build 0)  -->
<svg version="1.1" id="Layer_1" xmlns="http://www.w3.org/2000/svg" xmlns:xlink="http://www.w3.org/1999/xlink" x="0px" y="0px"
	 viewBox="0 0 494 381" style="enable-background:new 0 0 494 381;" xml:space="preserve">
<style type="text/css">
	.st0{fill:#FFFFFF;}
	.st1{fill:#990000;}
</style>
<rect x="-7.9" y="-1.9" width="511.5" height="390"/>
<g>
	<rect x="153.9" y="98.4" class="st0" width="56.2" height="187.3"/>
	<rect x="219.8" y="98.4" class="st0" width="56.2" height="187.3"/>
	<rect x="153.9" y="228.9" class="st0" width="122" height="56.8"/>
	<rect x="153.9" y="87.8" class="st0" width="122" height="56.8"/>
</g>
<g>
	<rect x="23.2" y="87.8" class="st0" width="56.2" height="187.3"/>
	<rect x="89" y="88.1" class="st0" width="56.2" height="252.9"/>
	<rect x="23.2" y="293.3" class="st0" width="122" height="56.8"/>
	<rect x="23.2" y="228.9" class="st0" width="122" height="56.8"/>
</g>
<g>
	<rect x="413" y="86.8" class="st1" width="56.2" height="261.7"/>
	<rect x="413" y="32.9" class="st1" width="56.2" height="47"/>
	<rect x="153.9" y="293.3" class="st1" width="314.9" height="56.8"/>
</g>
<g>
	<rect x="284.2" y="97.5" class="st1" width="56.2" height="187.3"/>
	<rect x="350.1" y="32.9" class="st1" width="56.2" height="252.9"/>
	<rect x="284.2" y="228.9" class="st1" width="122" height="56.8"/>
	<rect x="284.2" y="86.8" class="st1" width="122" height="56.8"/>
</g>
</svg>
